<svg width="62" height="63" viewBox="0 0 62 63" fill="none" xmlns="http://www.w3.org/2000/svg">
<g clip-path="url(#clip0_1_283)">
<path d="M61.3501 39.1171C60.956 38.9605 60.5062 39.0585 60.2134 39.365L55.8001 44.0039V16.4499H55.8053L60.0161 11.9032C60.4035 11.4846 60.378 10.8304 59.9589 10.443C59.9589 10.443 59.9584 10.4425 59.958 10.442L58.4424 9.03146L60.5483 6.75811C60.9352 6.33901 60.9092 5.6853 60.4901 5.29837L55.9434 1.08752C55.5248 0.700113 54.8711 0.725183 54.4837 1.14428L47.1367 9.07734H11.3667C11.3634 6.22502 9.05223 3.91383 6.19991 3.91052H5.16682C2.3145 3.91383 0.00331116 6.22502 0 9.07734V53.5107C0 54.0812 0.462616 54.5438 1.03355 54.5438H16.6759L14.5057 57.1497C14.141 57.5886 14.2006 58.24 14.6391 58.6047L19.4039 62.5719C19.8423 62.9371 20.4942 62.8775 20.8593 62.439L20.8598 62.4385L26.1487 56.0844C26.5139 55.6445 26.7489 55.1105 26.8265 54.5438H45.7611L39.5508 61.0654C39.1577 61.4788 39.1743 62.133 39.5877 62.526C39.7798 62.7086 40.0347 62.8108 40.3001 62.8103H60.9664C61.5374 62.8103 62 62.3477 62 61.7773V40.0773C62 39.6545 61.7427 39.2742 61.3501 39.1171ZM57.7977 11.2471L55.8001 13.4079V11.888L57.0399 10.5447L57.7977 11.2471ZM53.7335 11.0631V11.0778L44.9944 20.5226L41.9595 17.7147L52.487 6.3376L55.522 9.14546L53.7458 11.0631H53.7335ZM43.0096 21.4999L40.6326 22.1933L41.1402 19.7691L43.0096 21.4999ZM55.2949 3.3041L58.3284 6.11054L56.9245 7.63037L53.8905 4.82109L55.2949 3.3041ZM5.16682 5.97715H6.19991C7.91225 5.97715 9.30009 7.365 9.30009 9.07734V48.3708C8.41081 47.6869 7.32144 47.3141 6.19991 47.3103H5.16682C4.04482 47.3141 2.95592 47.6869 2.06664 48.3708V9.07734C2.06664 7.365 3.45448 5.97715 5.16682 5.97715ZM5.16682 49.377H6.19991C7.91225 49.377 9.30009 50.7653 9.30009 52.4772H2.06664C2.06664 50.7653 3.45448 49.377 5.16682 49.377ZM24.5612 54.7628L23.8999 55.5565L20.7236 52.9123L21.3839 52.1177C21.7491 51.6792 22.4005 51.6196 22.8389 51.9847C22.8394 51.9847 22.8394 51.9852 22.8399 51.9852L24.4278 53.304C24.8668 53.6687 24.9269 54.3201 24.5622 54.759C24.5617 54.7595 24.5617 54.7595 24.5612 54.76V54.7628ZM19.9332 60.3222L16.7563 57.678L19.401 54.5003L22.5774 57.1449L19.9332 60.3222ZM26.3923 52.4772C26.2206 52.191 26.0035 51.9351 25.7495 51.7189L24.1615 50.3973C22.8456 49.3018 20.891 49.4801 19.7955 50.796L18.3935 52.4772H11.3667V11.144H45.2247L39.741 17.07C39.6625 17.1585 39.6 17.2606 39.557 17.3708C39.5447 17.4006 39.5352 17.4286 39.5248 17.4598C39.5149 17.4905 39.4993 17.5217 39.4917 17.5548L38.2581 23.453C38.1417 24.0116 38.5002 24.5589 39.0589 24.6753C39.2249 24.7098 39.3966 24.7032 39.5589 24.6559L45.3458 22.9695C45.3728 22.961 45.3955 22.9454 45.421 22.9364C45.4471 22.927 45.474 22.9137 45.5019 22.9C45.6178 22.8475 45.7228 22.7732 45.8118 22.6819L53.7335 14.1207V46.1737L47.7299 52.4772H26.3923ZM59.9334 60.7437H42.7106L59.9334 42.6605V60.7437Z" fill="#DDA046"/>
<path d="M48.645 58.0394C48.8049 58.4254 49.1819 58.6771 49.6001 58.6771H56.833C57.404 58.6771 57.8666 58.2144 57.8666 57.644V50.4105C57.8666 49.8396 57.4035 49.3774 56.833 49.3774C56.5592 49.3774 56.2962 49.4862 56.1027 49.6802L48.8692 56.9132C48.5736 57.2088 48.4852 57.6534 48.645 58.0394ZM55.8 52.9048V56.6104H52.0943L55.8 52.9048Z" fill="#DDA046"/>
<path d="M45.4664 40.0774H38.2335V28.7107C38.232 28.4363 38.1228 28.1733 37.9293 27.9789L31.7294 21.779C31.3259 21.3755 30.6717 21.3755 30.2682 21.779L24.0683 27.9789C23.8758 28.1738 23.7675 28.4368 23.7665 28.7107V40.0774H16.5336C15.9626 40.0774 15.5 40.54 15.5 41.1105C15.5 41.6814 15.9626 42.144 16.5336 42.144H45.4669C46.0374 42.144 46.5 41.6814 46.5 41.1105C46.5 40.54 46.0374 40.0774 45.4664 40.0774ZM31 23.9715L34.7057 27.6771H27.2943L31 23.9715ZM25.8332 29.7437H36.1668V40.0774H25.8332V29.7437Z" fill="#DDA046"/>
<path d="M29.9663 17.3439H32.0334V19.4106H29.9663V17.3439Z" fill="#DDA046"/>
<path d="M29.9663 44.2106H32.0334V46.2773H29.9663V44.2106Z" fill="#DDA046"/>
</g>
<defs>
<clipPath id="clip0_1_283">
<rect width="62" height="62" fill="white" transform="translate(0 0.812744)"/>
</clipPath>
</defs>
</svg>
