<svg width="56" height="57" viewBox="0 0 56 57" fill="none" xmlns="http://www.w3.org/2000/svg">
<g clip-path="url(#clip0_1_323)">
<path d="M50.5312 5.62524H45.3177V4.09399C45.3177 2.28471 43.8457 0.812744 42.0364 0.812744C40.2271 0.812744 38.7552 2.28471 38.7552 4.09399V5.62524H20.3802V4.09399C20.3802 2.28471 18.9082 0.812744 17.0989 0.812744C15.2896 0.812744 13.8177 2.28471 13.8177 4.09399V5.66571C13.7247 5.64001 13.6272 5.62524 13.5261 5.62524H9.16814C6.15267 5.62524 3.69939 8.07853 3.69939 11.094V29.7242C3.69939 30.3282 4.18917 30.8179 4.79314 30.8179C5.39711 30.8179 5.88689 30.3282 5.88689 29.7242V16.8909H45.3177C45.9216 16.8909 46.4114 16.4012 46.4114 15.7971C46.4114 15.193 45.9216 14.7034 45.3177 14.7034H5.88689V11.094C5.88689 9.28471 7.35886 7.81274 9.16814 7.81274H13.5261C13.6272 7.81274 13.7247 7.79787 13.8177 7.77228V9.17993C13.8177 10.9892 15.2896 12.4612 17.0989 12.4612C18.9082 12.4612 20.3802 10.9892 20.3802 9.17993V7.81274H38.7552V9.17993C38.7552 10.9892 40.2271 12.4612 42.0364 12.4612C43.8457 12.4612 45.3177 10.9892 45.3177 9.17993V7.81274H50.5312C52.3405 7.81274 53.8125 9.28471 53.8125 11.094V52.6558C53.8125 53.7417 52.9291 54.6252 51.8431 54.6252C50.7571 54.6252 49.8737 53.7417 49.8737 52.6558V49.8264C49.8737 49.2223 49.3839 48.7327 48.7799 48.7327H36.0573C35.4534 48.7327 34.9636 49.2223 34.9636 49.8264C34.9636 50.4305 35.4534 50.9202 36.0573 50.9202H47.6862V52.6558C47.6862 53.368 47.8664 54.0387 48.1833 54.6252H4.15625C3.0707 54.6252 2.1875 53.742 2.1875 52.6565V50.9202H26.6684C27.2723 50.9202 27.7621 50.4305 27.7621 49.8264C27.7621 49.2223 27.2723 48.7327 26.6684 48.7327H15.74C17.6513 47.0867 18.8649 44.652 18.8649 41.9377C18.8649 36.9924 14.8415 32.969 9.89614 32.969C4.95075 32.969 0.927391 36.9924 0.927391 41.9377C0.927391 44.652 2.14102 47.0867 4.05223 48.7327H1.09375C0.489781 48.7327 0 49.2223 0 49.8264V52.6565C0 54.9482 1.86452 56.8127 4.15625 56.8127H51.8431C54.1352 56.8127 56 54.948 56 52.6558V11.094C56 8.07853 53.5467 5.62524 50.5312 5.62524ZM18.1927 9.17993C18.1927 9.78303 17.702 10.2737 17.0989 10.2737C16.4958 10.2737 16.0052 9.78303 16.0052 9.17993V4.09399C16.0052 3.4909 16.4958 3.00024 17.0989 3.00024C17.702 3.00024 18.1927 3.4909 18.1927 4.09399V9.17993ZM43.1302 9.17993C43.1302 9.78303 42.6395 10.2737 42.0364 10.2737C41.4333 10.2737 40.9427 9.78303 40.9427 9.17993V4.09399C40.9427 3.4909 41.4333 3.00024 42.0364 3.00024C42.6395 3.00024 43.1302 3.4909 43.1302 4.09399V9.17993ZM3.11489 41.9377C3.11489 38.1985 6.15694 35.1565 9.89614 35.1565C13.6353 35.1565 16.6774 38.1985 16.6774 41.9377C16.6774 45.6769 13.6353 48.719 9.89614 48.719C6.15694 48.719 3.11489 45.6769 3.11489 41.9377Z" fill="#DDA046"/>
<path d="M51.2214 15.0238C51.0181 14.8204 50.7359 14.7034 50.4482 14.7034C50.1605 14.7034 49.8784 14.8204 49.675 15.0238C49.4715 15.2273 49.3545 15.5095 49.3545 15.7971C49.3545 16.0848 49.4714 16.367 49.675 16.5704C49.8785 16.7738 50.1605 16.8909 50.4482 16.8909C50.7359 16.8909 51.0181 16.7738 51.2214 16.5704C51.4249 16.367 51.542 16.0848 51.542 15.7971C51.542 15.5095 51.425 15.2273 51.2214 15.0238Z" fill="#DDA046"/>
<path d="M32.6648 49.0526C32.4614 48.8492 32.1793 48.7332 31.8916 48.7332C31.6039 48.7332 31.3218 48.8492 31.1183 49.0526C30.9149 49.2571 30.7979 49.5382 30.7979 49.8259C30.7979 50.1146 30.9148 50.3957 31.1183 50.6002C31.3218 50.8037 31.6039 50.9196 31.8916 50.9196C32.1793 50.9196 32.4614 50.8037 32.6648 50.6002C32.8682 50.3957 32.9854 50.1135 32.9854 49.8259C32.9854 49.5382 32.8683 49.2571 32.6648 49.0526Z" fill="#DDA046"/>
<path d="M24.7456 34.0627C22.4539 34.0627 20.5894 35.9273 20.5894 38.219C20.5894 40.5107 22.4539 42.3752 24.7456 42.3752C27.0373 42.3752 28.9019 40.5107 28.9019 38.219C28.9019 35.9273 27.0373 34.0627 24.7456 34.0627ZM24.7456 40.1877C23.6601 40.1877 22.7769 39.3045 22.7769 38.219C22.7769 37.1334 23.6601 36.2502 24.7456 36.2502C25.8312 36.2502 26.7144 37.1334 26.7144 38.219C26.7144 39.3045 25.8312 40.1877 24.7456 40.1877Z" fill="#DDA046"/>
<path d="M34.9536 34.0627C32.6619 34.0627 30.7974 35.9273 30.7974 38.219C30.7974 40.5107 32.6619 42.3752 34.9536 42.3752C37.2453 42.3752 39.1099 40.5107 39.1099 38.219C39.1099 35.9273 37.2453 34.0627 34.9536 34.0627ZM34.9536 40.1877C33.8681 40.1877 32.9849 39.3045 32.9849 38.219C32.9849 37.1334 33.8681 36.2502 34.9536 36.2502C36.0392 36.2502 36.9224 37.1334 36.9224 38.219C36.9224 39.3045 36.0392 40.1877 34.9536 40.1877Z" fill="#DDA046"/>
<path d="M45.1621 34.0627C42.8704 34.0627 41.0059 35.9273 41.0059 38.219C41.0059 40.5107 42.8704 42.3752 45.1621 42.3752C47.4538 42.3752 49.3184 40.5107 49.3184 38.219C49.3184 35.9273 47.4538 34.0627 45.1621 34.0627ZM45.1621 40.1877C44.0766 40.1877 43.1934 39.3045 43.1934 38.219C43.1934 37.1334 44.0766 36.2502 45.1621 36.2502C46.2477 36.2502 47.1309 37.1334 47.1309 38.219C47.1309 39.3045 46.2477 40.1877 45.1621 40.1877Z" fill="#DDA046"/>
<path d="M14.5371 22.6877C12.2454 22.6877 10.3809 24.5523 10.3809 26.844C10.3809 29.1357 12.2454 31.0002 14.5371 31.0002C16.8288 31.0002 18.6934 29.1357 18.6934 26.844C18.6934 24.5523 16.8288 22.6877 14.5371 22.6877ZM14.5371 28.8127C13.4516 28.8127 12.5684 27.9295 12.5684 26.844C12.5684 25.7584 13.4516 24.8752 14.5371 24.8752C15.6227 24.8752 16.5059 25.7584 16.5059 26.844C16.5059 27.9295 15.6227 28.8127 14.5371 28.8127Z" fill="#DDA046"/>
<path d="M34.9536 22.6877C32.6619 22.6877 30.7974 24.5523 30.7974 26.844C30.7974 29.1357 32.6619 31.0002 34.9536 31.0002C37.2453 31.0002 39.1099 29.1357 39.1099 26.844C39.1099 24.5523 37.2453 22.6877 34.9536 22.6877ZM34.9536 28.8127C33.8681 28.8127 32.9849 27.9295 32.9849 26.844C32.9849 25.7584 33.8681 24.8752 34.9536 24.8752C36.0392 24.8752 36.9224 25.7584 36.9224 26.844C36.9224 27.9295 36.0392 28.8127 34.9536 28.8127Z" fill="#DDA046"/>
<path d="M45.1621 22.6877C42.8704 22.6877 41.0059 24.5523 41.0059 26.844C41.0059 29.1357 42.8704 31.0002 45.1621 31.0002C47.4538 31.0002 49.3184 29.1357 49.3184 26.844C49.3184 24.5523 47.4538 22.6877 45.1621 22.6877ZM45.1621 28.8127C44.0766 28.8127 43.1934 27.9295 43.1934 26.844C43.1934 25.7584 44.0766 24.8752 45.1621 24.8752C46.2477 24.8752 47.1309 25.7584 47.1309 26.844C47.1309 27.9295 46.2477 28.8127 45.1621 28.8127Z" fill="#DDA046"/>
<path d="M24.7456 22.6877C22.4539 22.6877 20.5894 24.5523 20.5894 26.844C20.5894 29.1357 22.4539 31.0002 24.7456 31.0002C27.0373 31.0002 28.9019 29.1357 28.9019 26.844C28.9019 24.5523 27.0373 22.6877 24.7456 22.6877ZM24.7456 28.8127C23.6601 28.8127 22.7769 27.9295 22.7769 26.844C22.7769 25.7584 23.6601 24.8752 24.7456 24.8752C25.8312 24.8752 26.7144 25.7584 26.7144 26.844C26.7144 27.9295 25.8312 28.8127 24.7456 28.8127Z" fill="#DDA046"/>
<path d="M13.7929 39.2722C13.3656 38.8451 12.6733 38.8451 12.246 39.2722L8.68406 42.8343L7.46683 41.617C7.03961 41.1899 6.34727 41.1899 5.91994 41.617C5.49283 42.0441 5.49283 42.7367 5.91994 43.1639L7.91067 45.1544C8.11586 45.3595 8.394 45.4748 8.68406 45.4748C8.97412 45.4748 9.25227 45.3595 9.45745 45.1544L13.7929 40.819C14.22 40.3919 14.22 39.6993 13.7929 39.2722Z" fill="#DDA046"/>
</g>
<defs>
<clipPath id="clip0_1_323">
<rect width="56" height="56" fill="white" transform="translate(0 0.812744)"/>
</clipPath>
</defs>
</svg>
