<svg width="53" height="55" viewBox="0 0 53 55" fill="none" xmlns="http://www.w3.org/2000/svg">
<g clip-path="url(#clip0_1_289)">
<path d="M4.76172 27.8123C4.76172 40.0253 14.5136 49.9608 26.5 49.9608C38.4864 49.9608 48.2383 40.0253 48.2383 27.8123C48.2383 15.5998 38.4864 5.66388 26.5 5.66388C14.5136 5.66388 4.76172 15.5998 4.76172 27.8123ZM46.168 27.8123C46.168 38.8622 37.3449 47.8514 26.5 47.8514C15.6551 47.8514 6.83203 38.8622 6.83203 27.8123C6.83203 16.7628 15.6551 7.77325 26.5 7.77325C37.3449 7.77325 46.168 16.7628 46.168 27.8123Z" fill="#DDA046"/>
<path d="M46.9734 10.6687C43.1405 5.92179 37.7945 2.62218 31.9208 1.37798C31.3624 1.26015 30.8129 1.62559 30.6964 2.19619C30.58 2.76638 30.9398 3.32462 31.4995 3.44327C42.758 5.82827 50.9297 16.0769 50.9297 27.8123C50.9297 41.5373 39.9708 52.7029 26.5 52.7029C13.0292 52.7029 2.07031 41.5373 2.07031 27.8123C2.07031 15.7592 10.5056 5.4583 22.1281 3.31927C22.6905 3.21586 23.0642 2.66709 22.9627 2.09401C22.8608 1.52094 22.3226 1.13985 21.7601 1.24367C15.7275 2.35357 10.2157 5.60827 6.23965 10.4079C2.21588 15.2657 0 21.4467 0 27.8123C0 35.0246 2.75651 41.8046 7.76165 46.9046C12.7668 52.0042 19.4217 54.8123 26.5 54.8123C33.5783 54.8123 40.2332 52.0038 45.2383 46.9046C50.2435 41.8046 53 35.0246 53 27.8123C53 21.5699 50.8597 15.4811 46.9734 10.6687Z" fill="#DDA046"/>
<path d="M26.6258 2.92212L26.6986 2.92253H26.7075C27.2748 2.92253 27.7374 2.45616 27.7423 1.87691C27.7471 1.29436 27.2874 0.8181 26.716 0.813156L26.6432 0.812744C26.64 0.812744 26.6371 0.812744 26.6343 0.812744C26.0666 0.812744 25.604 1.27911 25.5992 1.85878C25.5947 2.44133 26.0541 2.91718 26.6258 2.92212Z" fill="#DDA046"/>
<path d="M25.478 10.9027C25.478 11.18 25.5888 11.4511 25.7813 11.6484C25.975 11.8445 26.2411 11.9574 26.5132 11.9574C26.7865 11.9574 27.0526 11.8445 27.2451 11.6484C27.4388 11.4511 27.5496 11.18 27.5496 10.9027C27.5496 10.625 27.4388 10.3531 27.2451 10.157C27.0534 9.96091 26.7865 9.84802 26.5132 9.84802C26.2411 9.84802 25.9742 9.95967 25.7813 10.157C25.5888 10.3531 25.478 10.6242 25.478 10.9027Z" fill="#DDA046"/>
<path d="M26.4868 43.6677C26.2135 43.6677 25.9462 43.7805 25.7549 43.9767C25.5612 44.1728 25.4517 44.4451 25.4517 44.7224C25.4517 45.0009 25.5612 45.2719 25.7549 45.468C25.9474 45.665 26.2135 45.777 26.4868 45.777C26.7589 45.777 27.025 45.665 27.2183 45.468C27.4112 45.2719 27.522 44.9996 27.522 44.7224C27.522 44.4451 27.4112 44.174 27.2183 43.9767C27.0258 43.7805 26.7589 43.6677 26.4868 43.6677Z" fill="#DDA046"/>
<path d="M43.0967 28.881C43.3692 28.881 43.6361 28.769 43.8286 28.5728C44.0223 28.3755 44.1318 28.1044 44.1318 27.8263C44.1318 27.5486 44.0223 27.2767 43.8286 27.0806C43.6361 26.8845 43.37 26.7725 43.0967 26.7725C42.8245 26.7725 42.5577 26.8845 42.3652 27.0806C42.1723 27.2776 42.0615 27.5486 42.0615 27.8263C42.0615 28.1036 42.1723 28.3755 42.3652 28.5728C42.5585 28.769 42.8245 28.881 43.0967 28.881Z" fill="#DDA046"/>
<path d="M9.90332 26.7441C9.62957 26.7441 9.36391 26.8561 9.17143 27.0522C8.97775 27.2484 8.86816 27.5203 8.86816 27.7988C8.86816 28.076 8.97775 28.3484 9.17143 28.5445C9.36391 28.7406 9.62997 28.8535 9.90332 28.8535C10.1755 28.8535 10.4423 28.7406 10.6348 28.5445C10.8273 28.3484 10.9385 28.076 10.9385 27.7988C10.9385 27.5203 10.8277 27.2484 10.6348 27.0522C10.4423 26.8557 10.1755 26.7441 9.90332 26.7441Z" fill="#DDA046"/>
<path d="M18.2134 12.1061C17.9412 12.1061 17.674 12.219 17.4815 12.4151C17.289 12.6112 17.1782 12.8836 17.1782 13.1608C17.1782 13.4381 17.289 13.7104 17.4815 13.9065C17.674 14.1026 17.9412 14.2155 18.2134 14.2155C18.4855 14.2155 18.7528 14.1026 18.9453 13.9065C19.1377 13.7104 19.2485 13.4381 19.2485 13.1608C19.2485 12.8836 19.1377 12.6112 18.9453 12.4151C18.7528 12.219 18.4855 12.1061 18.2134 12.1061Z" fill="#DDA046"/>
<path d="M34.7866 41.4095C34.5145 41.4095 34.2472 41.5224 34.0547 41.7185C33.8623 41.9146 33.7515 42.1866 33.7515 42.4642C33.7515 42.7415 33.8623 43.0138 34.0547 43.2099C34.2472 43.406 34.5145 43.5189 34.7866 43.5189C35.0588 43.5189 35.326 43.406 35.5185 43.2099C35.711 43.0138 35.8218 42.7415 35.8218 42.4642C35.8218 42.1866 35.711 41.9146 35.5185 41.7185C35.326 41.5224 35.0588 41.4095 34.7866 41.4095Z" fill="#DDA046"/>
<path d="M40.8804 20.4245C41.1525 20.4245 41.4194 20.3116 41.6119 20.1151C41.8043 19.919 41.9155 19.6471 41.9155 19.3698C41.9155 19.0921 41.8047 18.8202 41.6119 18.6241C41.4194 18.428 41.1525 18.3151 40.8804 18.3151C40.6078 18.3151 40.341 18.4276 40.1485 18.6241C39.956 18.8202 39.8452 19.0921 39.8452 19.3698C39.8452 19.6471 39.9556 19.919 40.1485 20.1151C40.341 20.3116 40.6078 20.4245 40.8804 20.4245Z" fill="#DDA046"/>
<path d="M12.1196 35.2005C11.8475 35.2005 11.5806 35.3134 11.3881 35.5095C11.1953 35.7056 11.0845 35.9779 11.0845 36.2552C11.0845 36.5325 11.1953 36.8048 11.3881 37.0009C11.5806 37.197 11.8475 37.3099 12.1196 37.3099C12.3922 37.3099 12.659 37.197 12.8515 37.0009C13.044 36.8048 13.1548 36.5325 13.1548 36.2552C13.1548 35.9779 13.0444 35.7056 12.8515 35.5095C12.659 35.3134 12.393 35.2005 12.1196 35.2005Z" fill="#DDA046"/>
<path d="M12.1333 18.291C11.8608 18.291 11.5939 18.4034 11.4014 18.5999C11.2089 18.7961 11.0981 19.0671 11.0981 19.3456C11.0981 19.6229 11.2085 19.894 11.4014 20.0909C11.5951 20.287 11.8608 20.4003 12.1333 20.4003C12.4066 20.4003 12.6727 20.2874 12.8648 20.0909C13.0585 19.894 13.1685 19.6229 13.1685 19.3456C13.1685 19.0671 13.0585 18.7961 12.8648 18.5999C12.6727 18.4038 12.4066 18.291 12.1333 18.291Z" fill="#DDA046"/>
<path d="M40.8667 37.3342C41.1392 37.3342 41.4061 37.2213 41.5986 37.0252C41.7911 36.8291 41.9019 36.5568 41.9019 36.2795C41.9019 36.0023 41.7911 35.7299 41.5986 35.5338C41.4061 35.3377 41.1392 35.2249 40.8667 35.2249C40.5934 35.2249 40.3273 35.3377 40.1348 35.5338C39.9415 35.7299 39.8315 36.0023 39.8315 36.2795C39.8315 36.5568 39.9415 36.8291 40.1348 37.0252C40.3265 37.2213 40.5934 37.3342 40.8667 37.3342Z" fill="#DDA046"/>
<path d="M34.8101 14.2291C35.0826 14.2291 35.3495 14.1171 35.5419 13.921C35.7356 13.724 35.8452 13.4517 35.8452 13.1744C35.8452 12.8972 35.7356 12.6248 35.5419 12.4287C35.3495 12.2326 35.0826 12.1198 34.8101 12.1198C34.5379 12.1198 34.271 12.2326 34.0786 12.4287C33.8861 12.6248 33.7749 12.8972 33.7749 13.1744C33.7749 13.4517 33.8857 13.724 34.0786 13.921C34.271 14.1175 34.5379 14.2291 34.8101 14.2291Z" fill="#DDA046"/>
<path d="M18.1895 41.396C17.9161 41.396 17.6504 41.5076 17.4576 41.705C17.2651 41.9011 17.1543 42.1722 17.1543 42.4507C17.1543 42.728 17.2651 42.9999 17.4576 43.196C17.6504 43.3925 17.9165 43.5054 18.1895 43.5054C18.462 43.5054 18.7289 43.3925 18.9213 43.196C19.1138 42.999 19.2246 42.728 19.2246 42.4507C19.2246 42.173 19.1138 41.9011 18.9213 41.705C18.7289 41.5076 18.462 41.396 18.1895 41.396Z" fill="#DDA046"/>
<path d="M35.0221 17.6515L28.3781 24.4213C27.8229 24.1008 27.1824 23.917 26.5002 23.917C25.8213 23.917 25.184 24.0991 24.6309 24.4163L21.4546 21.1802C21.0503 20.7686 20.3952 20.7686 19.9905 21.1802C19.5865 21.5922 19.5865 22.26 19.9905 22.672L23.1667 25.9077C22.8553 26.4713 22.677 27.121 22.677 27.8124C22.677 29.9605 24.3919 31.7081 26.5002 31.7081C28.6085 31.7081 30.3234 29.9605 30.3234 27.8124C30.3234 27.1243 30.1467 26.4779 29.8382 25.9164L36.4862 19.1433C36.8902 18.7313 36.8902 18.0635 36.4862 17.6515C36.0819 17.2399 35.4264 17.2399 35.0221 17.6515ZM26.5002 29.5987C25.5334 29.5987 24.7473 28.7974 24.7473 27.8124C24.7473 26.8277 25.5334 26.0264 26.5002 26.0264C27.467 26.0264 28.2531 26.8277 28.2531 27.8124C28.2531 28.7974 27.467 29.5987 26.5002 29.5987Z" fill="#DDA046"/>
<path d="M31.0106 36.6717H22.0156C21.4439 36.6717 20.9805 37.1442 20.9805 37.7264C20.9805 38.3089 21.4439 38.7811 22.0156 38.7811H31.0106C31.5823 38.7811 32.0457 38.3089 32.0457 37.7264C32.0457 37.1442 31.5823 36.6717 31.0106 36.6717Z" fill="#DDA046"/>
</g>
<defs>
<clipPath id="clip0_1_289">
<rect width="53" height="54" fill="white" transform="translate(0 0.812744)"/>
</clipPath>
</defs>
</svg>
