<svg width="55" height="55" viewBox="0 0 55 55" fill="none" xmlns="http://www.w3.org/2000/svg">
<path d="M40.2403 49.4141C39.6565 49.4072 39.0852 49.244 38.586 48.9414L27.7578 42.0664C27.6822 42.0138 27.5922 41.9855 27.5 41.9855C27.4078 41.9855 27.3179 42.0138 27.2422 42.0664L17.166 48.4473C16.5927 48.8216 15.9179 49.01 15.2336 48.9869C14.5492 48.9639 13.8887 48.7304 13.3418 48.3184C12.7653 47.9052 12.3289 47.3258 12.0908 46.6577C11.8527 45.9896 11.8245 45.2647 12.0098 44.5801L14.9102 33.1719C14.9369 33.0636 14.933 32.9499 14.8988 32.8437C14.8647 32.7375 14.8017 32.6428 14.7168 32.5703L5.00587 24.4707C4.51717 24.0664 4.16152 23.5243 3.98525 22.915C3.80898 22.3058 3.82025 21.6575 4.01759 21.0547C4.20914 20.463 4.57342 19.9422 5.06352 19.5593C5.55363 19.1764 6.14712 18.949 6.76759 18.9063L19.4649 18.0899C19.5616 18.079 19.6533 18.0409 19.7294 17.9801C19.8054 17.9193 19.8627 17.8382 19.8945 17.7461L24.6211 5.84378C24.8486 5.26564 25.2449 4.76939 25.7584 4.41963C26.2718 4.06987 26.8787 3.88281 27.5 3.88281C28.1213 3.88281 28.7282 4.06987 29.2417 4.41963C29.7552 4.76939 30.1514 5.26564 30.3789 5.84378L35.1055 17.7461C35.1373 17.8382 35.1946 17.9193 35.2706 17.9801C35.3467 18.0409 35.4384 18.079 35.5352 18.0899L48.2324 18.9063C48.8529 18.949 49.4464 19.1764 49.9365 19.5593C50.4266 19.9422 50.7909 20.463 50.9824 21.0547C51.1798 21.6575 51.191 22.3058 51.0148 22.915C50.8385 23.5243 50.4829 24.0664 49.9942 24.4707L40.2832 32.5703C40.1984 32.6428 40.1353 32.7375 40.1012 32.8437C40.067 32.9499 40.0631 33.0636 40.0899 33.1719L43.2266 45.4825C43.3864 46.0973 43.3571 46.7461 43.1424 47.344C42.9278 47.9419 42.5378 48.4612 42.0235 48.834C41.5047 49.2098 40.8808 49.4127 40.2403 49.4141ZM27.5 39.4239C28.0789 39.4174 28.6469 39.5818 29.1328 39.8965L39.9824 46.75C40.0624 46.8045 40.1578 46.8319 40.2545 46.828C40.3513 46.8241 40.4442 46.7893 40.5195 46.7285C40.6143 46.6588 40.6857 46.5618 40.724 46.4505C40.7624 46.3392 40.766 46.2189 40.7344 46.1055L37.5977 33.795C37.4506 33.2184 37.4693 32.612 37.6517 32.0457C37.8342 31.4793 38.1729 30.976 38.6289 30.5938L48.3399 22.4942C48.4323 22.4231 48.499 22.3238 48.53 22.2114C48.561 22.099 48.5546 21.9796 48.5117 21.8711C48.4886 21.7665 48.4322 21.6721 48.3508 21.6024C48.2694 21.5326 48.1675 21.4912 48.0606 21.4844L35.3848 20.668C34.8004 20.6213 34.2403 20.4141 33.7664 20.069C33.2925 19.724 32.9231 19.2547 32.6992 18.7129L27.9727 6.7891C27.9418 6.68781 27.8792 6.59913 27.7941 6.53611C27.709 6.47309 27.6059 6.43908 27.5 6.43908C27.3941 6.43908 27.291 6.47309 27.2059 6.53611C27.1208 6.59913 27.0582 6.68781 27.0274 6.7891L22.3008 18.7129C22.0769 19.2547 21.7076 19.724 21.2336 20.069C20.7597 20.4141 20.1996 20.6213 19.6153 20.668L6.93947 21.4844C6.8325 21.4912 6.73064 21.5326 6.64926 21.6024C6.56788 21.6721 6.51138 21.7665 6.4883 21.8711C6.44544 21.9796 6.43903 22.099 6.47003 22.2114C6.50104 22.3238 6.56778 22.4231 6.66017 22.4942L16.3711 30.5938C16.8271 30.976 17.1658 31.4793 17.3483 32.0457C17.5307 32.612 17.5495 33.2184 17.4024 33.795L14.502 45.2246C14.451 45.408 14.4565 45.6025 14.5178 45.7826C14.5791 45.9628 14.6934 46.1203 14.8457 46.2344C14.9806 46.336 15.143 46.3944 15.3117 46.4021C15.4804 46.4098 15.6475 46.3663 15.791 46.2774L25.8672 39.8965C26.3531 39.5818 26.9211 39.4174 27.5 39.4239Z" fill="#DDA046"/>
</svg>
