<svg width="56" height="57" viewBox="0 0 56 57" fill="none" xmlns="http://www.w3.org/2000/svg">
<g clip-path="url(#clip0_1_270)">
<path d="M27.7392 37.3321C26.1712 37.3321 24.8955 38.6077 24.8955 40.1757C24.8955 41.7437 26.1713 43.0194 27.7392 43.0194C29.307 43.0194 30.5828 41.7437 30.5828 40.1757C30.5828 38.6077 29.3073 37.3321 27.7392 37.3321ZM27.7392 40.832C27.3772 40.832 27.0829 40.5377 27.0829 40.1757C27.0829 39.8138 27.3772 39.5195 27.7392 39.5195C28.1011 39.5195 28.3954 39.8138 28.3954 40.1757C28.3954 40.5377 28.1011 40.832 27.7392 40.832Z" fill="#DDA046"/>
<path d="M36.5179 33.7073C36.3145 33.5039 36.0323 33.3867 35.7446 33.3867C35.457 33.3867 35.1748 33.5037 34.9713 33.7073C34.7668 33.9106 34.6509 34.1928 34.6509 34.4805C34.6509 34.7682 34.7668 35.0504 34.9713 35.2538C35.1748 35.4573 35.457 35.5742 35.7446 35.5742C36.0323 35.5742 36.3145 35.4573 36.5179 35.2538C36.7213 35.0504 36.8384 34.7682 36.8384 34.4805C36.8384 34.1928 36.7213 33.9106 36.5179 33.7073Z" fill="#DDA046"/>
<path d="M50.5308 16.5614H49.3516L33.9237 1.13347C33.4966 0.706361 32.804 0.706361 32.377 1.13347L28.4246 5.08595L12.6173 0.850407C12.0338 0.693892 11.4339 1.04028 11.2776 1.6238L7.2754 16.5614H4.59462C2.06171 16.5614 0.000976562 18.622 0.000976562 21.155C0.000976562 21.2157 0.00327344 21.276 0.00557031 21.3361C0.00305469 21.3662 0.000976562 21.3964 0.000976562 21.4271V51.3443C0.000976563 54.3595 2.45426 56.8128 5.46962 56.8128H44.6247C44.6416 56.8128 44.6582 56.8117 44.6752 56.8115H50.5307C53.5461 56.8115 55.9992 54.3583 55.9992 51.3428V22.0299C55.9993 19.0144 53.5462 16.5614 50.5308 16.5614ZM49.5536 18.7487H50.5308C52.3401 18.7487 53.8119 20.2207 53.8119 22.0299V30.7955C53.8119 32.225 52.649 33.3878 51.2196 33.3878H50.0933V29.0297C50.0933 26.0524 47.7014 23.6249 44.7384 23.5639L49.5536 18.7487ZM29.5249 7.0792C29.525 7.07909 29.5251 7.07888 29.5252 7.07877L33.1505 3.45353L47.453 17.7561L41.6835 23.5256H39.6826L42.2997 20.9084C42.7268 20.4813 42.7268 19.7887 42.2997 19.3616C41.4143 18.4762 41.4143 17.0357 42.2997 16.1503C42.7268 15.7232 42.7268 15.0307 42.2997 14.6034L36.3029 8.60685C35.8758 8.17974 35.1832 8.17974 34.756 8.60685C33.8706 9.49235 32.43 9.49235 31.5447 8.60685C31.1176 8.17974 30.4249 8.17974 29.9979 8.60685L15.0792 23.5257H13.0783L29.5249 7.0792ZM26.3061 19.4165C23.8093 19.4165 21.7174 21.1795 21.2071 23.5257H18.1725L30.8673 10.831C32.2685 11.6662 34.0322 11.6662 35.4334 10.831L40.0754 15.473C39.2404 16.8741 39.2404 18.6381 40.0754 20.0392L36.5889 23.5257H31.4051C30.8948 21.1794 28.803 19.4165 26.3061 19.4165ZM29.1264 23.5257H23.4862C23.93 22.4017 25.0265 21.604 26.3063 21.604C27.5861 21.604 28.6825 22.4017 29.1264 23.5257ZM11.9223 21.5881L14.8188 10.7783C15.6129 10.7911 16.403 10.5883 17.1105 10.1795C17.8182 9.77103 18.3876 9.19014 18.7749 8.49419L23.6973 9.81314L16.5539 16.9565L11.9223 21.5881ZM13.1076 3.24638L26.6385 6.87194L25.4834 8.02716L18.4145 6.133C18.1341 6.05786 17.8357 6.09724 17.5845 6.24227C17.3333 6.3873 17.15 6.62617 17.075 6.90639C16.9179 7.4922 16.5422 7.98188 16.017 8.28517C15.4916 8.58847 14.8797 8.66897 14.2938 8.51202C13.7105 8.35561 13.1106 8.70189 12.9543 9.28541L9.12897 23.5611H7.66423L13.1076 3.24638ZM4.59462 18.7487H6.68904L5.39951 23.5611H4.59451C3.26768 23.5611 2.18837 22.4817 2.18837 21.155C2.18848 19.8282 3.26801 18.7487 4.59462 18.7487ZM53.8119 51.3428C53.8119 53.1521 52.34 54.624 50.5308 54.624H48.9976C49.6852 53.7096 50.0933 52.5737 50.0933 51.3441V46.9499H50.7495C51.8919 46.9499 52.9492 46.5821 53.8119 45.9602V51.3428ZM53.8119 41.7001C53.8119 43.3888 52.4381 44.7625 50.7495 44.7625H27.7815C25.2486 44.7625 23.1878 42.7019 23.1878 40.1689C23.1878 37.6358 25.2484 35.5752 27.7815 35.5752H31.0962C31.7003 35.5752 32.1899 35.0854 32.1899 34.4815C32.1899 33.8775 31.7003 33.3877 31.0962 33.3877H27.7815C24.0424 33.3877 21.0004 36.4297 21.0004 40.1688C21.0004 43.9078 24.0424 46.9498 27.7815 46.9498H47.9059V51.344C47.9059 53.1364 46.4612 54.5979 44.6753 54.6252H7.43826V42.3086C7.43826 41.7046 6.94859 41.2148 6.34451 41.2148C5.74043 41.2148 5.25076 41.7046 5.25076 42.3086V54.6172C3.5432 54.5042 2.18837 53.0798 2.18837 51.3443V25.0658C2.8887 25.4983 3.71284 25.7485 4.59451 25.7485H44.6245C46.4338 25.7485 47.9057 27.2205 47.9057 29.0297V33.3878H39.9976C39.3935 33.3878 38.9038 33.8776 38.9038 34.4816C38.9038 35.0855 39.3935 35.5753 39.9976 35.5753H51.2196C52.1748 35.5753 53.0647 35.2926 53.8119 34.8081V41.7001Z" fill="#DDA046"/>
<path d="M7.11752 37.2694C6.91408 37.0661 6.63189 36.949 6.34424 36.949C6.05658 36.949 5.77439 37.066 5.57096 37.2694C5.36752 37.4729 5.25049 37.7551 5.25049 38.0427C5.25049 38.3304 5.36752 38.6126 5.57096 38.816C5.77439 39.0194 6.05658 39.1365 6.34424 39.1365C6.63189 39.1365 6.91408 39.0194 7.11752 38.816C7.32095 38.6126 7.43798 38.3304 7.43798 38.0427C7.43788 37.7551 7.32084 37.4729 7.11752 37.2694Z" fill="#DDA046"/>
</g>
<defs>
<clipPath id="clip0_1_270">
<rect width="56" height="56" fill="white" transform="translate(0 0.812744)"/>
</clipPath>
</defs>
</svg>
