<svg width="59" height="59" viewBox="0 0 59 59" fill="none" xmlns="http://www.w3.org/2000/svg">
<g filter="url(#filter0_d_7924_458)">
<path d="M32.8895 38.0772H32.6662C31.486 37.9779 30.3375 37.6525 29.2868 37.1197C27.0186 36.0459 25.0097 34.5162 23.3926 32.6314C22.1619 31.2457 21.1882 29.662 20.5151 27.9511C20.1428 27.0808 19.9687 26.1422 20.0046 25.2C20.0453 24.5359 20.3439 23.9118 20.84 23.4544C21.0982 23.2172 21.3476 22.9743 21.5942 22.7314C21.7856 22.5421 21.9626 22.3839 22.1424 22.2116C22.3107 22.0319 22.5156 21.8882 22.7441 21.79C22.9727 21.6917 23.2197 21.641 23.4695 21.641C23.7193 21.641 23.9664 21.6917 24.1949 21.79C24.4234 21.8882 24.6283 22.0319 24.7966 22.2116C25.1476 22.5478 25.4956 22.8895 25.8437 23.2341L26.157 23.5392L26.8532 24.2199C27.0451 24.3845 27.1988 24.587 27.3041 24.814C27.4094 25.0409 27.4639 25.2871 27.4639 25.5361C27.4639 25.7852 27.4094 26.0314 27.3041 26.2583C27.1988 26.4853 27.0451 26.6878 26.8532 26.8524L26.537 27.1603C26.2614 27.4286 25.9888 27.6969 25.7103 27.9624C25.9751 28.5015 26.3094 29.0056 26.7052 29.4623C27.5688 30.5323 28.6088 31.4553 29.7829 32.1936C29.9192 32.2755 30.0729 32.3518 30.2412 32.4309L30.3949 32.5043C30.772 32.1287 31.1549 31.7586 31.5378 31.3886C31.7059 31.2066 31.9114 31.0611 32.1411 30.9614C32.3707 30.8618 32.6193 30.8103 32.8707 30.8103C33.1221 30.8103 33.3706 30.8618 33.6003 30.9614C33.8299 31.0611 34.0354 31.2066 34.2035 31.3886C34.8978 32.0571 35.5881 32.7294 36.2746 33.4054C36.4629 33.5706 36.6135 33.7726 36.7165 33.9981C36.8196 34.2236 36.8728 34.4677 36.8728 34.7145C36.8728 34.9614 36.8196 35.2055 36.7165 35.431C36.6135 35.6565 36.4629 35.8585 36.2746 36.0237C36.1412 36.1537 36.0049 36.2836 35.8685 36.4135C35.6046 36.6649 35.3522 36.9022 35.1231 37.1564C34.8429 37.46 34.4976 37.6999 34.1116 37.859C33.7256 38.0182 33.3084 38.0926 32.8895 38.0772ZM21.6029 27.5585C22.2299 29.1477 23.1358 30.6186 24.2802 31.9055C25.7927 33.6669 27.671 35.0964 29.7916 36.1C30.7014 36.5748 31.7014 36.8632 32.73 36.9474C33.0118 36.9799 33.2975 36.9455 33.5627 36.8471C33.8279 36.7488 34.0647 36.5893 34.2528 36.3825C34.511 36.1 34.7866 35.8373 35.0563 35.5831C35.1869 35.4588 35.3174 35.3345 35.4479 35.2074C35.5302 35.1478 35.5969 35.0702 35.6429 34.981C35.6889 34.8917 35.7129 34.7932 35.7129 34.6934C35.7129 34.5935 35.6889 34.495 35.6429 34.4058C35.5969 34.3165 35.5302 34.239 35.4479 34.1793C34.7634 33.5052 34.0749 32.8348 33.3826 32.1682C33.3225 32.092 33.2452 32.0303 33.1567 31.9879C33.0681 31.9454 32.9708 31.9233 32.8721 31.9233C32.7734 31.9233 32.6761 31.9454 32.5876 31.9879C32.499 32.0303 32.4217 32.092 32.3616 32.1682C31.9265 32.5891 31.4914 32.9986 31.0882 33.4167C30.9612 33.5592 30.7871 33.6541 30.5959 33.685C30.4048 33.7159 30.2085 33.681 30.041 33.5861C29.9366 33.5296 29.8293 33.4788 29.7249 33.4308C29.5421 33.3432 29.3536 33.2528 29.1679 33.1483C27.8854 32.3434 26.7492 31.3364 25.806 30.1684C25.2979 29.5841 24.8806 28.9303 24.5674 28.2279C24.4895 28.0702 24.4664 27.8921 24.5014 27.7204C24.5365 27.5488 24.6278 27.3928 24.7618 27.2761C25.0837 26.9738 25.3999 26.666 25.7132 26.3553L26.0294 26.0446C26.392 25.6887 26.392 25.3667 26.0294 25.0023L25.339 24.3272L25.0228 24.0193C24.6776 23.6776 24.3325 23.3386 23.9844 23.0082C23.9236 22.9319 23.8458 22.8702 23.7568 22.8277C23.6678 22.7853 23.57 22.7632 23.471 22.7632C23.3719 22.7632 23.2741 22.7853 23.1851 22.8277C23.0961 22.8702 23.0183 22.9319 22.9575 23.0082C22.7777 23.1776 22.6065 23.3471 22.4325 23.5166C22.1772 23.768 21.9191 24.0194 21.6551 24.2623C21.3595 24.5267 21.1832 24.8943 21.1649 25.2848C21.1426 26.059 21.2889 26.8291 21.5942 27.5444L21.6029 27.5585ZM38.5691 28.9849H37.4088C37.4057 26.9025 36.5548 24.9063 35.0427 23.4338C33.5305 21.9614 31.4805 21.1328 29.342 21.1298V20C31.7882 20.003 34.1334 20.9506 35.8631 22.6349C37.5929 24.3193 38.566 26.6029 38.5691 28.9849ZM35.4798 28.9849H34.3196C34.318 27.6999 33.7931 26.4679 32.86 25.5593C31.9268 24.6506 30.6616 24.1395 29.342 24.138V23.0082C30.9691 23.0104 32.529 23.6408 33.6796 24.7612C34.8301 25.8816 35.4775 27.4005 35.4798 28.9849Z" fill="#DDA046"/>
</g>
<defs>
<filter id="filter0_d_7924_458" x="0" y="0" width="58.5691" height="58.0791" filterUnits="userSpaceOnUse" color-interpolation-filters="sRGB">
<feFlood flood-opacity="0" result="BackgroundImageFix"/>
<feColorMatrix in="SourceAlpha" type="matrix" values="0 0 0 0 0 0 0 0 0 0 0 0 0 0 0 0 0 0 127 0" result="hardAlpha"/>
<feOffset/>
<feGaussianBlur stdDeviation="10"/>
<feColorMatrix type="matrix" values="0 0 0 0 0.752941 0 0 0 0 0.545098 0 0 0 0 0.380392 0 0 0 1 0"/>
<feBlend mode="lighten" in2="BackgroundImageFix" result="effect1_dropShadow_7924_458"/>
<feBlend mode="normal" in="SourceGraphic" in2="effect1_dropShadow_7924_458" result="shape"/>
</filter>
</defs>
</svg>
