<svg width="54" height="55" viewBox="0 0 54 55" fill="none" xmlns="http://www.w3.org/2000/svg">
<g clip-path="url(#clip0_1_307)">
<path d="M51.2998 33.2136H43.1998V19.7136H51.2998C51.7968 19.7136 52.1998 19.3107 52.1998 18.8136V14.3767L53.9908 1.84152C54.0613 1.34956 53.7198 0.89337 53.2277 0.822833C53.1853 0.816758 53.1425 0.813721 53.0998 0.813721H27.8999C27.4029 0.813608 26.9999 1.21658 26.9998 1.7136C26.9998 1.75635 27.0028 1.7991 27.0089 1.84152L28.7999 14.3767V18.8136C28.7999 19.3107 29.2029 19.7136 29.6999 19.7136H37.7998V33.2136H36.8998C35.4087 33.2136 34.1999 34.4224 34.1999 35.9136C34.1999 37.4048 35.4087 38.6136 36.8998 38.6136H37.7998V40.4136H31.4999L32.3396 27.8136H33.2999C33.7969 27.8136 34.1999 27.4106 34.1999 26.9136V23.3136C34.1999 22.8166 33.7969 22.4136 33.2999 22.4136H26.9324C26.6479 20.4633 25.4687 18.758 23.7446 17.8029C25.1715 14.6297 23.7558 10.9004 20.5825 9.47348C17.4092 8.04654 13.6799 9.46223 12.253 12.6356C12.0054 13.1862 11.8382 13.7695 11.7566 14.3678C6.82287 13.8341 2.3905 17.401 1.8568 22.3348C1.85399 22.3611 1.85118 22.3874 1.84859 22.4137H0.899996C0.402973 22.4137 0 22.8167 0 23.3137V26.9137C0 27.4107 0.402973 27.8137 0.899996 27.8137H1.85849L3.59998 53.9729C3.63137 54.4466 4.02523 54.8145 4.49998 54.8135H53.0998C53.5968 54.8135 53.9998 54.4105 53.9998 53.9135V35.9136C53.9998 34.4224 52.791 33.2136 51.2998 33.2136ZM28.9376 2.61371H32.3999V8.01369H34.1999V2.61371H35.9998V4.41371H37.7998V2.61371H43.1998V5.3137H44.9998V2.61371H46.7998V8.01369H48.5998V2.61371H52.0621L50.5195 13.4137H30.4802L28.9376 2.61371ZM30.5999 17.9136V15.2137H50.3998V17.9136H30.5999ZM41.3998 19.7136V33.2136H39.5998V19.7136H41.3998ZM32.3999 24.2136V26.0136H18.8999V24.2136H32.3999ZM11.6733 16.1704C11.9207 16.2011 12.1663 16.2446 12.4091 16.3009C12.419 16.3009 12.4289 16.3009 12.4388 16.3009C13.4947 16.5493 14.4811 17.0318 15.3251 17.7129L16.4573 16.3135C15.5912 15.619 14.6045 15.09 13.5467 14.7529C13.8052 12.2875 16.0132 10.4985 18.4785 10.7569C20.9438 11.0153 22.7329 13.2233 22.4745 15.6886C22.3982 16.4167 22.1449 17.1151 21.7368 17.7228C21.4603 18.1358 21.5709 18.6948 21.984 18.9714C22.0471 19.0136 22.1153 19.0476 22.1868 19.0728C23.676 19.5986 24.7806 20.8664 25.0974 22.4136H17.9999C17.5029 22.4136 17.0999 22.8166 17.0999 23.3136V31.4136C17.0999 31.9106 16.697 32.3136 16.1999 32.3136C15.7029 32.3136 15.2999 31.9106 15.2999 31.4136V29.6136C15.2999 28.1224 14.0911 26.9136 12.5999 26.9136C11.1088 26.9136 9.89996 28.1224 9.89996 29.6136V35.9136C9.89996 36.4106 9.49699 36.8136 8.99996 36.8136C8.50294 36.8136 8.09997 36.4106 8.09997 35.9136V23.3136C8.09997 22.8166 7.69699 22.4136 7.19997 22.4136H3.66028C4.14898 18.4768 7.73648 15.6817 11.6733 16.1704ZM1.79999 26.0136V24.2136H6.29997V26.0136H1.79999ZM25.1999 43.1135V53.0135H5.34238L3.66208 27.8136H6.29997V35.9136C6.29997 37.4048 7.50878 38.6136 8.99996 38.6136C10.4911 38.6136 11.7 37.4048 11.7 35.9136V29.6136C11.7 29.1166 12.1029 28.7136 12.5999 28.7136C13.097 28.7136 13.4999 29.1166 13.4999 29.6136V31.4136C13.4999 32.9048 14.7088 34.1136 16.1999 34.1136C17.6911 34.1136 18.8999 32.9048 18.8999 31.4136V27.8136H30.5378L29.6999 40.4136H27.8999C26.4087 40.4136 25.1999 41.6224 25.1999 43.1135ZM52.1998 53.0135H49.4998V48.5135H47.6998V53.0135H44.9998V48.5135H43.1998V53.0135H40.4998V48.5135H38.6998V53.0135H35.9998V48.5135H34.1999V53.0135H31.4999V48.5135H29.6999V53.0135H26.9999V45.8135H52.1998V53.0135ZM52.1998 44.0135H26.9999V43.1135C26.9999 42.6165 27.4029 42.2135 27.8999 42.2135H47.6998C49.191 42.2135 50.3998 41.0047 50.3998 39.5136C50.3998 38.0224 49.191 36.8136 47.6998 36.8136H36.8998C36.4028 36.8136 35.9998 36.4106 35.9998 35.9136C35.9998 35.4165 36.4028 35.0136 36.8998 35.0136H51.2998C51.7968 35.0136 52.1998 35.4165 52.1998 35.9136V44.0135ZM39.5998 40.4136V38.6136H41.3998V40.4136H39.5998ZM43.1998 40.4136V38.6136H47.6998C48.1968 38.6136 48.5998 39.0165 48.5998 39.5136C48.5998 40.0106 48.1968 40.4136 47.6998 40.4136H43.1998Z" fill="#DDA046"/>
<path d="M3.59998 9.81281V8.01282H1.79999V9.81281H0V11.6128H1.79999V13.4128H3.59998V11.6128H5.39998V9.81281H3.59998Z" fill="#DDA046"/>
<path d="M51.2997 26.0128V24.2128H49.4997V26.0128H47.6997V27.8128H49.4997V29.6127H51.2997V27.8128H53.0997V26.0128H51.2997Z" fill="#DDA046"/>
<path d="M17.1 2.61286V0.812866H15.3V2.61286H13.5V4.41285H15.3V6.21284H17.1V4.41285H18.9V2.61286H17.1Z" fill="#DDA046"/>
<path d="M34.1999 9.81287H32.3999V11.6129H34.1999V9.81287Z" fill="#DDA046"/>
</g>
<defs>
<clipPath id="clip0_1_307">
<rect width="54" height="54" fill="white" transform="translate(0 0.812744)"/>
</clipPath>
</defs>
</svg>
